# xmcd
#
# Track frame offsets:
#	150
#	14906
#	34086
#	51824
#	70010
#	88161
#	112668
#	128510
#	145079
#	163548
#	180129
#	196914
#	215542
#	230876
#	251236
#	267496
#	281881
#	296591
#
# Disc length: 4252 seconds
#
# Revision: 0
# Processed by: cddbd v1.5.2PL0 Copyright (c) Steve Scherf et al.
# Submitted via: audiograbber 1.83.01
#
DISCID=0d109a12
DTITLE=Benjalu - The Compilation
DYEAR=2012
DGENRE=Blues
TTITLE0=My Shelter My Fortress
TTITLE1=Strange Feeling
TTITLE2=Time Wasted
TTITLE3=Despite
TTITLE4=By Your Side
TTITLE5=Two Messages
TTITLE6=The Lie
TTITLE7=My Confusion
TTITLE8=Waterwalls
TTITLE9=Close My Eyes
TTITLE10=So High
TTITLE11=Grey Old Man
TTITLE12=Runaway
TTITLE13=Java
TTITLE14=Another Way
TTITLE15=One Last Time
TTITLE16=By The Ocean
TTITLE17=Shadows In The Sun
EXTD=
EXTT0=
EXTT1=
EXTT2=
EXTT3=
EXTT4=
EXTT5=
EXTT6=
EXTT7=
EXTT8=
EXTT9=
EXTT10=
EXTT11=
EXTT12=
EXTT13=
EXTT14=
EXTT15=
EXTT16=
EXTT17=
PLAYORDER=
